<mxfile host="app.diagrams.net" modified="2021-03-09T11:54:31.238Z" agent="5.0 (Windows NT 10.0; Win64; x64) AppleWebKit/537.36 (KHTML, like Gecko) Chrome/88.0.4324.190 Safari/537.36" etag="f2lAhfzAz_2lu2nvW2MV" version="14.4.2" type="github">
  <diagram id="e_oHikrCGlD3wUt8RU_Y" name="第 1 页">
    <mxGraphModel dx="1422" dy="800" grid="1" gridSize="10" guides="1" tooltips="1" connect="1" arrows="1" fold="1" page="1" pageScale="1" pageWidth="827" pageHeight="1169" math="0" shadow="0">
      <root>
        <mxCell id="0" />
        <mxCell id="1" parent="0" />
        <mxCell id="Py3d8Sym0yIGWNPmK3j7-6" value="" style="whiteSpace=wrap;html=1;aspect=fixed;dashed=1;strokeWidth=2;" vertex="1" parent="1">
          <mxGeometry x="155" y="215" width="110" height="110" as="geometry" />
        </mxCell>
        <mxCell id="Py3d8Sym0yIGWNPmK3j7-1" value="&lt;font face=&quot;Times New Roman&quot; style=&quot;font-size: 18px&quot;&gt;&lt;b&gt;&lt;span&gt;Res(X)Block&lt;br&gt;&lt;/span&gt;with&lt;br&gt;Bottleneck&lt;/b&gt;&lt;/font&gt;" style="rounded=0;whiteSpace=wrap;html=1;" vertex="1" parent="1">
          <mxGeometry x="160" y="220" width="100" height="100" as="geometry" />
        </mxCell>
        <mxCell id="Py3d8Sym0yIGWNPmK3j7-2" value="" style="endArrow=classic;html=1;exitX=0.5;exitY=1;exitDx=0;exitDy=0;" edge="1" parent="1" source="Py3d8Sym0yIGWNPmK3j7-5">
          <mxGeometry width="50" height="50" relative="1" as="geometry">
            <mxPoint x="209.66000000000008" y="140" as="sourcePoint" />
            <mxPoint x="210" y="210" as="targetPoint" />
          </mxGeometry>
        </mxCell>
        <mxCell id="Py3d8Sym0yIGWNPmK3j7-3" value="" style="endArrow=classic;html=1;" edge="1" parent="1">
          <mxGeometry width="50" height="50" relative="1" as="geometry">
            <mxPoint x="209.5000000000001" y="325" as="sourcePoint" />
            <mxPoint x="210" y="360" as="targetPoint" />
          </mxGeometry>
        </mxCell>
        <mxCell id="Py3d8Sym0yIGWNPmK3j7-5" value="&lt;font size=&quot;1&quot; face=&quot;Times New Roman&quot;&gt;&lt;b style=&quot;font-size: 18px&quot;&gt;Base layer&lt;/b&gt;&lt;/font&gt;" style="rounded=0;whiteSpace=wrap;html=1;" vertex="1" parent="1">
          <mxGeometry x="160" y="140" width="100" height="40" as="geometry" />
        </mxCell>
        <mxCell id="Py3d8Sym0yIGWNPmK3j7-7" value="&lt;font&gt;&lt;span style=&quot;font-size: 16px&quot;&gt;X &lt;/span&gt;&lt;i&gt;&lt;font style=&quot;font-size: 18px&quot;&gt;n&lt;/font&gt;&lt;/i&gt;&lt;/font&gt;" style="text;html=1;resizable=0;autosize=1;align=center;verticalAlign=middle;points=[];fillColor=none;strokeColor=none;rounded=0;dashed=1;" vertex="1" parent="1">
          <mxGeometry x="270" y="260" width="40" height="20" as="geometry" />
        </mxCell>
      </root>
    </mxGraphModel>
  </diagram>
</mxfile>
